<svg xmlns="http://www.w3.org/2000/svg" width="1024" height="1024" viewBox="0 0 1024 1024" role="img" aria-label="Shahy">
  <rect width="1024" height="1024" fill="#FFFFFF"/>
  <path fill="#1677FF" fill-rule="evenodd" d="
    M 828,174
    C 761,220 690,235 604,238
    C 493,242 405,270 351,332
    C 292,399 292,486 350,548
    C 389,590 445,611 515,628
    C 582,644 621,660 630,690
    C 641,727 602,753 540,750
    C 475,747 422,722 374,681
    L 196,850
    C 262,809 339,787 428,786
    C 533,785 616,769 672,722
    C 742,663 754,576 701,509
    C 660,457 603,434 535,417
    C 469,400 426,384 421,355
    C 416,325 452,301 509,300
    C 573,299 626,323 675,364
    L 828,174
    Z
    M 591,329
    C 542,307 482,317 453,352
    C 429,381 438,421 473,442
    C 505,461 549,457 577,431
    C 598,411 611,378 591,329
    Z
    M 433,695
    C 482,718 542,708 571,672
    C 595,643 586,603 551,582
    C 519,563 475,567 447,593
    C 426,613 413,646 433,695
    Z
  "/>
</svg>
